<?xml version="1.0" encoding="UTF-8" standalone="no"?>
<!-- Created with Inkscape (http://www.inkscape.org/) -->

<svg
   version="1.1"
   id="svg2"
   width="1480.0416"
   height="961.11578"
   viewBox="0 0 1480.0416 961.11578"
   sodipodi:docname="frame.svg"
   inkscape:version="1.2.2 (732a01da63, 2022-12-09)"
   xmlns:inkscape="http://www.inkscape.org/namespaces/inkscape"
   xmlns:sodipodi="http://sodipodi.sourceforge.net/DTD/sodipodi-0.dtd"
   xmlns="http://www.w3.org/2000/svg"
   xmlns:svg="http://www.w3.org/2000/svg">
  <defs
     id="defs6">
    <clipPath
       clipPathUnits="userSpaceOnUse"
       id="clipPath20">
      <path
         d="m 33.359,0 h 1050.75 V 720.93 H 33.359 Z"
         id="path18" />
    </clipPath>
    <clipPath
       clipPathUnits="userSpaceOnUse"
       id="clipPath30">
      <path
         d="M 0,0 H 1111 V 721 H 0 Z"
         id="path28" />
    </clipPath>
  </defs>
  <sodipodi:namedview
     id="namedview4"
     pagecolor="#ffffff"
     bordercolor="#000000"
     borderopacity="0.25"
     inkscape:showpageshadow="2"
     inkscape:pageopacity="0.0"
     inkscape:pagecheckerboard="0"
     inkscape:deskcolor="#d1d1d1"
     showgrid="false"
     inkscape:zoom="0.69451445"
     inkscape:cx="524.10717"
     inkscape:cy="488.1108"
     inkscape:window-width="2560"
     inkscape:window-height="1494"
     inkscape:window-x="-11"
     inkscape:window-y="-11"
     inkscape:window-maximized="1"
     inkscape:current-layer="g10">
    <inkscape:page
       x="0"
       y="0"
       id="page8"
       width="1480.0416"
       height="961.11578" />
  </sodipodi:namedview>
  <g
     id="g10"
     inkscape:groupmode="layer"
     inkscape:label="Page 1"
     transform="matrix(1.3333333,0,0,1.3333333,0,2.0027895e-5)">
    <g
       id="g12" />
    <g
       id="g14">
      <g
         id="g16"
         clip-path="url(#clipPath20)">
        <g
           id="g22">
          <g
             id="g24">
            <g
               id="g26"
               clip-path="url(#clipPath30)">
              <g
                 id="g32">
                <g
                   id="g34">
                  <path
                     d="M 615.137,197.172 495.879,165.297"
                     style="fill:#ffffff;fill-opacity:1;fill-rule:nonzero;stroke:#000000;stroke-width:2.625;stroke-linecap:butt;stroke-linejoin:miter;stroke-miterlimit:4;stroke-dasharray:none;stroke-opacity:1"
                     id="path36" />
                </g>
                <path
                   d="m 884.805,255.48 2.566,-0.601 2.668,-0.422 2.703,0.129 2.645,0.797 2.941,1.617 3.149,2.297 1.457,1.371 1.238,1.508 0.922,1.644 0.465,1.778 0.015,1.972 -0.367,2.164 -0.633,2.344 -0.867,2.344 -1.105,2.371 -1.227,2.137 -1.367,1.945 -1.477,1.535 -1.679,1.199 -1.989,0.977 -4.32,1.191 -4.32,0.512 -1.926,-0.039 -1.672,-0.156 -1.457,-0.406 -1.551,-0.793 -1.472,-3.879 1.605,-0.606 1.352,3.563 -0.407,-0.457 1.18,0.605 -0.168,-0.066 1.305,0.359 -0.149,-0.023 1.567,0.152 -0.067,-0.008 1.836,0.035 -0.117,0.008 4.191,-0.496 -0.128,0.023 4.187,-1.152 -0.152,0.059 1.855,-0.907 -0.129,0.075 1.551,-1.117 -0.109,0.097 1.379,-1.433 -0.082,0.097 1.304,-1.844 -0.047,0.067 1.196,-2.078 -0.039,0.058 1.078,-2.3 -0.028,0.066 0.84,-2.277 -0.023,0.074 0.613,-2.266 -0.019,0.082 0.343,-2.047 -0.008,0.141 -0.015,-1.785 0.031,0.219 -0.414,-1.567 0.082,0.203 -0.832,-1.488 0.082,0.129 -1.152,-1.41 0.082,0.082 -1.379,-1.297 0.082,0.066 -3.063,-2.234 0.09,0.062 -2.812,-1.554 0.176,0.074 -2.461,-0.734 0.203,0.031 -2.508,-0.113 0.18,-0.016 -2.555,0.406 0.058,-0.008 -2.535,0.586 z m -11.399,30.563 2.473,-15.176 10.66,11.078 z"
                   style="fill:#ffc000;fill-opacity:1;fill-rule:nonzero;stroke:none"
                   id="path38" />
                <path
                   d="M 1079.609,435.914 677.52,717.93 34.859,548.547 442.109,265.68 Z"
                   style="fill:#f2f2f2;fill-opacity:1;fill-rule:evenodd;stroke:none"
                   id="path40" />
                <g
                   id="g42">
                  <path
                     d="m 614.984,196.305 4.516,335.16"
                     style="fill:none;stroke:#ffc000;stroke-width:3.4375;stroke-linecap:butt;stroke-linejoin:miter;stroke-miterlimit:8;stroke-dasharray:none;stroke-opacity:1"
                     id="path44" />
                </g>
                <g
                   id="g46">
                  <path
                     d="m 614.984,196.305 35.454,310.664"
                     style="fill:none;stroke:#ff00ff;stroke-width:3.4375;stroke-linecap:butt;stroke-linejoin:miter;stroke-miterlimit:8;stroke-dasharray:13.75, 10.3125;stroke-dashoffset:0;stroke-opacity:1"
                     id="path48" />
                </g>
                <g
                   id="g50"
                   transform="scale(1,-1)">
                  <path
                     d="M 614.984,-196.348 818.012,-54.551"
                     style="fill:none;stroke:#ffc000;stroke-width:3.4375;stroke-linecap:butt;stroke-linejoin:miter;stroke-miterlimit:8;stroke-dasharray:none;stroke-opacity:1"
                     id="path52" />
                </g>
                <g
                   id="g54">
                  <path
                     d="M 614.984,196.305 928.23,279.449"
                     style="fill:none;stroke:#ffc000;stroke-width:3.4375;stroke-linecap:butt;stroke-linejoin:miter;stroke-miterlimit:8;stroke-dasharray:none;stroke-opacity:1"
                     id="path56" />
                </g>
                <g
                   id="g58"
                   transform="scale(1,-1)">
                  <path
                     d="M 614.984,-196.363 813.5,-8.805"
                     style="fill:none;stroke:#0000ff;stroke-width:3.4375;stroke-linecap:butt;stroke-linejoin:miter;stroke-miterlimit:8;stroke-dasharray:none;stroke-opacity:1"
                     id="path60" />
                </g>
                <g
                   id="g62">
                  <path
                     d="M 614.984,196.305 685.883,520.5"
                     style="fill:none;stroke:#00b050;stroke-width:3.4375;stroke-linecap:butt;stroke-linejoin:miter;stroke-miterlimit:8;stroke-dasharray:none;stroke-opacity:1"
                     id="path64" />
                </g>
                <g
                   id="g66">
                  <path
                     d="M 614.984,196.305 923.07,240.777"
                     style="fill:none;stroke:#ff0000;stroke-width:3.4375;stroke-linecap:butt;stroke-linejoin:miter;stroke-miterlimit:8;stroke-dasharray:none;stroke-opacity:1"
                     id="path68" />
                </g>
                <path
                   d="m 852.473,231.195 -0.098,7.235 -0.238,3.496 -1.102,3.668 -1.652,-0.496 1.074,-3.571 -0.031,0.188 0.234,-3.375 v 0.047 l 0.09,-7.215 z m 5.324,12.938 -10.688,11.047 -2.421,-15.18 z"
                   style="fill:#ff00ff;fill-opacity:1;fill-rule:nonzero;stroke:none"
                   id="path70" />
                <path
                   d="m 667.477,432.84 -6.899,2.234 -3.414,0.848 -4.109,0.031 -0.016,-1.719 4.016,-0.031 -0.203,0.031 3.285,-0.816 -0.063,0.012 6.871,-2.227 z m -11.145,9.203 -13.598,-7.172 13.899,-6.578 z"
                   style="fill:#ff00ff;fill-opacity:1;fill-rule:nonzero;stroke:none"
                   id="path72" />
                <g
                   id="g74">
                  <path
                     d="M 617.234,196.305 930.48,279.449"
                     style="fill:none;stroke:#ff00ff;stroke-width:3.4375;stroke-linecap:butt;stroke-linejoin:miter;stroke-miterlimit:8;stroke-dasharray:13.75, 10.3125;stroke-dashoffset:0;stroke-opacity:1"
                     id="path76" />
                </g>
                <g
                   id="g78"
                   transform="scale(1,-1)">
                  <path
                     d="M 614.234,-197.113 812.75,-9.555"
                     style="fill:none;stroke:#ff00ff;stroke-width:3.4375;stroke-linecap:butt;stroke-linejoin:miter;stroke-miterlimit:8;stroke-dasharray:13.75, 10.3125;stroke-dashoffset:0;stroke-opacity:1"
                     id="path80" />
                </g>
                <path
                   d="m 765.465,53.359 0.144,1.735 -0.031,-0.153 0.426,1.594 -0.066,-0.164 1.5,3 -0.036,-0.066 1.977,3.199 1.098,1.91 1.058,2.113 0.809,2 -0.031,-0.062 1.207,2.414 1.105,3.828 -1.652,0.473 -1.078,-3.746 0.058,0.144 -1.191,-2.375 -0.805,-2 0.023,0.063 -1.027,-2.063 0.024,0.043 -1.082,-1.875 0.015,0.024 -1.988,-3.219 -1.559,-3.113 -0.465,-1.754 -0.144,-1.809 z m 14.133,16.536 -3.219,15.035 -10.094,-11.598 z"
                   style="fill:#ffc000;fill-opacity:1;fill-rule:nonzero;stroke:none"
                   id="path82" />
                <path
                   d="m 645.969,447.344 -3.008,2.109 -2.879,1.777 -3.09,1.739 0.012,-0.008 -3.742,2.199 -1.895,1.055 0.059,-0.027 -2.281,1.515 -3.766,1.641 -0.68,-1.574 3.688,-1.614 -0.133,0.074 2.242,-1.492 1.926,-1.07 -0.02,0.004 3.735,-2.195 3.09,-1.743 -0.032,0.016 2.844,-1.746 -0.047,0.031 2.985,-2.101 z m -15.203,16.336 -15.317,-1.328 10.254,-11.454 z"
                   style="fill:#ffc000;fill-opacity:1;fill-rule:nonzero;stroke:none"
                   id="path84" />
                <g
                   id="g86">
                  <path
                     d="M 34.109,549.18 678,720.008"
                     style="fill:none;stroke:#ffc000;stroke-width:1.71875;stroke-linecap:butt;stroke-linejoin:miter;stroke-miterlimit:8;stroke-dasharray:none;stroke-opacity:1"
                     id="path88" />
                </g>
                <g
                   id="g90"
                   transform="scale(1,-1)">
                  <path
                     d="m 34.109,-548.766 407.36,283.836"
                     style="fill:none;stroke:#ffc000;stroke-width:1.71875;stroke-linecap:butt;stroke-linejoin:miter;stroke-miterlimit:8;stroke-dasharray:none;stroke-opacity:1"
                     id="path92" />
                </g>
                <g
                   id="g94">
                  <path
                     d="M 1083,435.758 439.109,264.93"
                     style="fill:none;stroke:#ffc000;stroke-width:1.71875;stroke-linecap:butt;stroke-linejoin:miter;stroke-miterlimit:8;stroke-dasharray:none;stroke-opacity:1"
                     id="path96" />
                </g>
                <g
                   id="g98"
                   transform="scale(-1,1)">
                  <path
                     d="m -1083.465,435.93 407.356,283.836"
                     style="fill:none;stroke:#ffc000;stroke-width:1.71875;stroke-linecap:butt;stroke-linejoin:miter;stroke-miterlimit:8;stroke-dasharray:none;stroke-opacity:1"
                     id="path100" />
                </g>
                <path
                   d="m 780.824,31.754 -0.383,-2.606 -0.191,-2.652 0.352,-2.629 1.011,-2.574 1.86,-2.789 2.461,-2.895 1.484,-1.336 1.566,-1.113 1.727,-0.734 1.801,-0.317 1.91,0.157 2.133,0.543 2.234,0.828 2.277,1.066 4.18,2.641 1.777,1.531 1.403,1.555 1.074,1.781 0.754,2.012 0.871,4.363 0.098,4.289 -0.149,1.914 -0.301,1.664 -0.523,1.406 -0.871,1.496 -3.914,1.04 -0.445,-1.661 3.57,-0.949 -0.516,0.399 0.653,-1.125 -0.063,0.132 0.465,-1.265 -0.035,0.144 0.277,-1.547 -0.008,0.09 0.141,-1.828 -0.004,0.086 -0.09,-4.172 0.012,0.149 -0.84,-4.219 0.039,0.133 -0.707,-1.875 0.07,0.14 -0.984,-1.64 0.098,0.133 -1.313,-1.454 0.074,0.075 -1.687,-1.45 0.105,0.075 -4.078,-2.578 0.098,0.05 -2.207,-1.031 0.07,0.027 -2.16,-0.796 0.09,0.027 -2.02,-0.516 0.145,0.024 -1.735,-0.141 0.219,-0.012 -1.597,0.282 0.187,-0.055 -1.547,0.656 0.168,-0.09 -1.457,1.032 0.074,-0.063 -1.402,1.266 0.074,-0.082 -2.383,2.812 0.059,-0.078 -1.785,2.672 0.082,-0.164 -0.938,2.39 0.055,-0.199 -0.324,2.438 v -0.18 l 0.187,2.531 -0.007,-0.058 0.375,2.578 z m 29.266,13.777 -14.918,-3.726 11.933,-9.696 z"
                   style="fill:#ff00ff;fill-opacity:1;fill-rule:nonzero;stroke:none"
                   id="path102" />
                <text
                   xml:space="preserve"
                   transform="translate(817.92825,213.92871)"
                   style="font-style:italic;font-variant:normal;font-size:48px;font-family:'Times New Roman';-inkscape-font-specification:TimesNewRomanPS-ItalicMT;writing-mode:lr-tb;fill:#ff00ff;fill-opacity:1;fill-rule:nonzero;stroke:none"
                   id="text106"><tspan
                     x="0"
                     y="0"
                     id="tspan104">α</tspan></text>
                <text
                   xml:space="preserve"
                   transform="translate(771.89025,128.42871)"
                   style="font-style:italic;font-variant:normal;font-size:48px;font-family:'Times New Roman';-inkscape-font-specification:TimesNewRomanPS-ItalicMT;writing-mode:lr-tb;fill:#ffc000;fill-opacity:1;fill-rule:nonzero;stroke:none"
                   id="text110"><tspan
                     x="0"
                     y="0"
                     id="tspan108">θ</tspan></text>
                <text
                   xml:space="preserve"
                   transform="translate(819.47325,33.17871)"
                   style="font-variant:normal;font-weight:normal;font-size:37.5px;font-family:'Cambria Math';-inkscape-font-specification:CambriaMath;writing-mode:lr-tb;fill:#ff00ff;fill-opacity:1;fill-rule:nonzero;stroke:none"
                   id="text114"><tspan
                     x="0"
                     y="0"
                     id="tspan112">①</tspan></text>
                <text
                   xml:space="preserve"
                   transform="translate(881.47312,327.92871)"
                   style="font-variant:normal;font-weight:normal;font-size:37.5px;font-family:'Cambria Math';-inkscape-font-specification:CambriaMath;writing-mode:lr-tb;fill:#ffc000;fill-opacity:1;fill-rule:nonzero;stroke:none"
                   id="text118"><tspan
                     x="0"
                     y="0"
                     id="tspan116">②</tspan></text>
                <g
                   id="g120">
                  <path
                     d="M 595.441,580.336 476.184,548.461"
                     style="fill:#ffffff;fill-opacity:1;fill-rule:nonzero;stroke:#000000;stroke-width:2.625;stroke-linecap:butt;stroke-linejoin:miter;stroke-miterlimit:4;stroke-dasharray:none;stroke-opacity:1"
                     id="path122" />
                </g>
                <g
                   id="g124">
                  <path
                     d="M 511.164,180.234 V 546.766"
                     style="fill:none;stroke:#000000;stroke-width:2.6985;stroke-linecap:butt;stroke-linejoin:miter;stroke-miterlimit:4;stroke-dasharray:none;stroke-opacity:1"
                     id="path126" />
                </g>
                <g
                   id="g128"
                   transform="matrix(0,-1,0.841884,0,0,0)">
                  <path
                     d="m -170.984,607.167 -13.864,8.013 v -16.026 z"
                     style="fill:#000000;fill-opacity:1;fill-rule:evenodd;stroke:#000000;stroke-width:2.13674;stroke-linecap:butt;stroke-linejoin:miter;stroke-miterlimit:4;stroke-dasharray:none;stroke-opacity:1"
                     id="path130" />
                </g>
                <g
                   id="g132"
                   transform="matrix(0,1,-0.841884,0,0,0)">
                  <path
                     d="m 556.012,-607.167 -13.864,8.013 v -16.026 z"
                     style="fill:#000000;fill-opacity:1;fill-rule:evenodd;stroke:#000000;stroke-width:2.13674;stroke-linecap:butt;stroke-linejoin:miter;stroke-miterlimit:4;stroke-dasharray:none;stroke-opacity:1"
                     id="path134" />
                </g>
                <g
                   id="g136"
                   transform="matrix(1,-0.0553516,0.0553516,1,0,0)">
                  <path
                     d="m 121.048,395.11 315.334,83.662"
                     style="fill:none;stroke:#ff0000;stroke-width:3.43224;stroke-linecap:butt;stroke-linejoin:miter;stroke-miterlimit:8;stroke-dasharray:none;stroke-opacity:1"
                     id="path138" />
                </g>
                <g
                   id="g140"
                   transform="matrix(1,-0.0553516,-0.0553516,-1,0,0)">
                  <path
                     d="m 121.048,-394.825 199.499,139.008"
                     style="fill:none;stroke:#00b050;stroke-width:3.43224;stroke-linecap:butt;stroke-linejoin:miter;stroke-miterlimit:8;stroke-dasharray:none;stroke-opacity:1"
                     id="path142" />
                </g>
                <g
                   id="g144"
                   transform="matrix(1,-0.0553516,0.0553516,1,0,0)">
                  <path
                     d="m 115.804,58.875 5.152,335.926"
                     style="fill:none;stroke:#0000ff;stroke-width:3.43224;stroke-linecap:butt;stroke-linejoin:miter;stroke-miterlimit:8;stroke-dasharray:none;stroke-opacity:1"
                     id="path146" />
                </g>
              </g>
            </g>
          </g>
        </g>
        <path
           d="m 538.523,387.078 c 0.032,-0.183 0.125,-0.492 0.125,-0.738 0,-0.492 -0.464,-0.492 -0.585,-0.492 -0.032,0 -2.438,0.215 -2.684,0.246 -0.832,0.058 -1.574,0.152 -2.438,0.215 -1.234,0.093 -1.574,0.125 -1.574,1.019 0,0.492 0.403,0.492 1.082,0.492 2.406,0 2.438,0.43 2.438,0.926 0,0.277 -0.094,0.676 -0.125,0.832 l -7.094,28.317 c -0.215,0.738 -0.215,0.832 -0.215,1.14 0,1.078 0.832,1.262 1.324,1.262 0.832,0 1.481,-0.645 1.727,-1.172 l 2.191,-8.852 c 0.246,-1.078 0.524,-2.097 0.77,-3.175 0.555,-2.067 0.555,-2.129 1.48,-3.547 0.926,-1.418 3.118,-4.348 6.91,-4.348 1.946,0 2.622,1.481 2.622,3.422 0,2.746 -1.911,8.082 -2.993,11.012 -0.429,1.172 -0.675,1.82 -0.675,2.683 0,2.219 1.511,3.977 3.886,3.977 4.532,0 6.258,-7.184 6.258,-7.492 0,-0.246 -0.215,-0.434 -0.492,-0.434 -0.461,0 -0.492,0.156 -0.738,0.988 -1.145,3.918 -2.934,5.954 -4.907,5.954 -0.492,0 -1.265,-0.032 -1.265,-1.606 0,-1.266 0.586,-2.836 0.773,-3.391 0.895,-2.343 3.082,-8.113 3.082,-10.949 0,-2.933 -1.695,-5.121 -5.426,-5.121 -2.777,0 -5.214,1.293 -7.218,3.856 z"
           style="fill:#000000;fill-opacity:1;fill-rule:nonzero;stroke:none"
           id="path148" />
        <text
           xml:space="preserve"
           transform="translate(917.99856,216.87863)"
           style="font-style:italic;font-variant:normal;font-size:48.1874px;font-family:'Times New Roman';-inkscape-font-specification:TimesNewRomanPS-ItalicMT;writing-mode:lr-tb;fill:#000000;fill-opacity:1;fill-rule:nonzero;stroke:none"
           id="text152"><tspan
             x="0"
             y="0"
             id="tspan150">c</tspan></text>
        <text
           xml:space="preserve"
           transform="translate(939.38644,216.87863)"
           style="font-variant:normal;font-weight:normal;font-size:48.1874px;font-family:'Times New Roman';-inkscape-font-specification:TimesNewRomanPSMT;writing-mode:lr-tb;fill:#000000;fill-opacity:1;fill-rule:nonzero;stroke:none"
           id="text156"><tspan
             x="0 16.046789 32.093578 48.140369 69.528244 107.00996"
             y="0"
             sodipodi:role="line"
             id="tspan154">-frame</tspan></text>
        <text
           xml:space="preserve"
           transform="translate(943.43039,293.07264)"
           style="font-style:italic;font-variant:normal;font-size:48.1874px;font-family:'Times New Roman';-inkscape-font-specification:TimesNewRomanPS-ItalicMT;writing-mode:lr-tb;fill:#000000;fill-opacity:1;fill-rule:nonzero;stroke:none"
           id="text160"><tspan
             x="0"
             y="0"
             id="tspan158">c</tspan></text>
        <text
           xml:space="preserve"
           transform="translate(956.05693,302.7101)"
           style="font-variant:normal;font-weight:normal;font-size:31.3218px;font-family:SimSun;-inkscape-font-specification:SimSun;writing-mode:lr-tb;fill:#000000;fill-opacity:1;fill-rule:nonzero;stroke:none"
           id="text164"><tspan
             x="0"
             y="0"
             id="tspan162">⊥</tspan></text>
        <text
           xml:space="preserve"
           transform="translate(982.99798,293.07262)"
           style="font-variant:normal;font-weight:normal;font-size:48.1874px;font-family:'Times New Roman';-inkscape-font-specification:TimesNewRomanPSMT;writing-mode:lr-tb;fill:#000000;fill-opacity:1;fill-rule:nonzero;stroke:none"
           id="text168"><tspan
             x="0 16.046789 32.093578 48.140369"
             y="0"
             sodipodi:role="line"
             id="tspan166">-fra</tspan></text>
      </g>
    </g>
    <g
       id="g170">
      <text
         xml:space="preserve"
         transform="translate(1052.5262,293.07262)"
         style="font-variant:normal;font-weight:normal;font-size:48.1874px;font-family:'Times New Roman';-inkscape-font-specification:TimesNewRomanPSMT;writing-mode:lr-tb;fill:#000000;fill-opacity:1;fill-rule:nonzero;stroke:none"
         id="text174"><tspan
           x="0 37.481724"
           y="0"
           sodipodi:role="line"
           id="tspan172">me</tspan></text>
      <text
         xml:space="preserve"
         transform="translate(-1.2705727,439.31919)"
         style="font-style:italic;font-variant:normal;font-size:48.1874px;font-family:'Times New Roman';-inkscape-font-specification:TimesNewRomanPS-ItalicMT;writing-mode:lr-tb;fill:#000000;fill-opacity:1;fill-rule:nonzero;stroke:none"
         id="text178"><tspan
           x="0"
           y="0"
           id="tspan176">b</tspan></text>
      <text
         xml:space="preserve"
         transform="translate(22.82314,439.31919)"
         style="font-variant:normal;font-weight:normal;font-size:48.1874px;font-family:'Times New Roman';-inkscape-font-specification:TimesNewRomanPSMT;writing-mode:lr-tb;fill:#000000;fill-opacity:1;fill-rule:nonzero;stroke:none"
         id="text182"><tspan
           x="0 16.046789 32.093578 48.140369 69.528244 107.00996"
           y="0"
           sodipodi:role="line"
           id="tspan180">-frame</tspan></text>
      <g
         id="g184">
        <path
           d="M 181.652,298.199 281.555,228.59"
           style="fill:none;stroke:#000000;stroke-width:3.435;stroke-linecap:butt;stroke-linejoin:miter;stroke-miterlimit:8;stroke-dasharray:none;stroke-opacity:1"
           id="path186" />
      </g>
      <g
         id="g188"
         transform="matrix(1,-0.696775,0.58664,0.841937,0,0)">
        <path
           d="m 91.973,339.626 -14.476,8.369 -0.002,-16.737 z"
           style="fill:#000000;fill-opacity:1;fill-rule:evenodd;stroke:#000000;stroke-width:2.23162;stroke-linecap:butt;stroke-linejoin:miter;stroke-miterlimit:4;stroke-dasharray:none;stroke-opacity:1"
           id="path190" />
      </g>
    </g>
  </g>
</svg>
