<svg width="924" height="302" xmlns="http://www.w3.org/2000/svg" xmlns:xlink="http://www.w3.org/1999/xlink" overflow="hidden"><g transform="translate(-116 -51)"><path d="M135.5 64.3336C135.5 59.455 139.455 55.5001 144.334 55.5001L250.667 55.5001C255.545 55.5001 259.5 59.455 259.5 64.3336L259.5 99.6665C259.5 104.545 255.545 108.5 250.667 108.5L144.334 108.5C139.455 108.5 135.5 104.545 135.5 99.6665Z" stroke="#000000" stroke-linejoin="round" stroke-miterlimit="10" fill="#FFFFCC" fill-rule="evenodd"/><text font-family="Arial,Arial_MSFontService,sans-serif" font-weight="400" font-size="13" transform="translate(178.978 87)">Image</text><path d="M135.5 139.334C135.5 134.455 139.455 130.5 144.334 130.5L250.667 130.5C255.545 130.5 259.5 134.455 259.5 139.334L259.5 174.667C259.5 179.545 255.545 183.5 250.667 183.5L144.334 183.5C139.455 183.5 135.5 179.545 135.5 174.667Z" stroke="#000000" stroke-linejoin="round" stroke-miterlimit="10" fill="#FFFFCC" fill-rule="evenodd"/><text font-family="Arial,Arial_MSFontService,sans-serif" font-weight="400" font-size="13" transform="translate(168.228 162)">Odometry</text><rect x="287.5" y="55.5001" width="124" height="53" stroke="#000000" stroke-linejoin="round" stroke-miterlimit="10" fill="none"/><text font-family="Arial,Arial_MSFontService,sans-serif" font-weight="400" font-size="13" transform="translate(308.277 79)">Segmentation</text><text font-family="Arial,Arial_MSFontService,sans-serif" font-weight="400" font-size="13" transform="translate(331.53 95)">+ IPM</text><rect x="432.5" y="55.5001" width="124" height="53" stroke="#000000" stroke-linejoin="round" stroke-miterlimit="10" fill="none"/><text font-family="Arial,Arial_MSFontService,sans-serif" font-weight="400" font-size="13" transform="translate(452.395 79)">Road Marking</text><text font-family="Arial,Arial_MSFontService,sans-serif" font-weight="400" font-size="13" transform="translate(465.314 95)">Modelling</text><path d="M914.5 139.334C914.5 134.455 918.455 130.5 923.334 130.5L1029.67 130.5C1034.55 130.5 1038.5 134.455 1038.5 139.334L1038.5 174.667C1038.5 179.545 1034.55 183.5 1029.67 183.5L923.334 183.5C918.455 183.5 914.5 179.545 914.5 174.667Z" stroke="#000000" stroke-linejoin="round" stroke-miterlimit="10" fill="#FFFFCC" fill-rule="evenodd"/><text font-family="Arial,Arial_MSFontService,sans-serif" font-weight="400" font-size="13" transform="translate(940.262 162)">Global Pose</text><path d="M756.5 63.3336C756.5 58.455 760.455 54.5001 765.334 54.5001L871.667 54.5001C876.545 54.5001 880.5 58.455 880.5 63.3336L880.5 98.6665C880.5 103.545 876.545 107.5 871.667 107.5L765.334 107.5C760.455 107.5 756.5 103.545 756.5 98.6665Z" stroke="#000000" stroke-linejoin="round" stroke-miterlimit="10" fill="#F2F2F2" fill-rule="evenodd"/><text font-family="Arial,Arial_MSFontService,sans-serif" font-weight="400" font-size="13" transform="translate(787.096 86)">Local Map</text><path d="M556.5 82.1667 594.183 82.1668 594.183 82.8335 556.5 82.8334ZM592.85 78.5001 600.85 82.5002 592.85 86.5001Z"/><path d="M259.5 82.1667 280.451 82.1668 280.451 82.8335 259.5 82.8334ZM279.118 78.5001 287.118 82.5002 279.118 86.5001Z"/><path d="M411.5 82.1667 425.354 82.1668 425.354 82.8335 411.5 82.8334ZM424.02 78.5001 432.02 82.5002 424.02 86.5001Z"/><path d="M0-0.333333 402.866-0.333333 402.866 35.3431 402.199 35.3431 402.199 0 402.533 0.333333 0 0.333333ZM406.533 34.0098 402.533 42.0098 398.533 34.0098Z" transform="matrix(1 0 0 -1 260.5 150.51)"/><rect x="600.5" y="55.5001" width="124" height="53" stroke="#000000" stroke-linejoin="round" stroke-miterlimit="10" fill="#FF0000" fill-opacity="0.2"/><text font-family="Arial,Arial_MSFontService,sans-serif" font-weight="400" font-size="13" transform="translate(646.338 79)">Local</text><text font-family="Arial,Arial_MSFontService,sans-serif" font-weight="400" font-size="13" transform="translate(636.758 95)">Mapping</text><rect x="756.5" y="130.5" width="124" height="53" stroke="#000000" stroke-linejoin="round" stroke-miterlimit="10" fill="none"/><text font-family="Arial,Arial_MSFontService,sans-serif" font-weight="400" font-size="13" transform="translate(769.346 162)">Geo</text><text font-family="Arial,Arial_MSFontService,sans-serif" font-weight="400" font-size="13" transform="translate(794.346 162)">-</text><text font-family="Arial,Arial_MSFontService,sans-serif" font-weight="400" font-size="13" transform="translate(798.846 162)">Registering</text><path d="M756.5 213.334C756.5 208.455 760.455 204.5 765.334 204.5L871.667 204.5C876.545 204.5 880.5 208.455 880.5 213.334L880.5 248.667C880.5 253.545 876.545 257.5 871.667 257.5L765.334 257.5C760.455 257.5 756.5 253.545 756.5 248.667Z" stroke="#000000" stroke-linejoin="round" stroke-miterlimit="10" fill="#F2F2F2" fill-rule="evenodd"/><text font-family="Arial,Arial_MSFontService,sans-serif" font-weight="400" font-size="13" transform="translate(783.762 236)">Global Map</text><path d="M0.00845352-0.333226 24.7505 0.294449 24.7336 0.960901-0.00845352 0.333226ZM23.5106-3.40485 31.4066 0.796745 23.3077 4.59257Z" transform="matrix(1 0 0 -1 724.5 82.2968)"/><path d="M818.833 107.5 818.833 123.757 818.167 123.757 818.167 107.5ZM822.5 122.424 818.5 130.424 814.5 122.424Z"/><path d="M1.01234e-06-0.333333 27.9024-0.333249 27.9024 0.333418-1.01234e-06 0.333333ZM26.569-3.99992 34.569 0.000104987 26.569 4.00008Z" transform="matrix(-1 0 0 1 915.069 157.5)"/><path d="M818.833 183.5 818.833 197.763 818.167 197.763 818.167 183.5ZM822.5 196.43 818.5 204.43 814.5 196.43Z"/><rect x="601.5" y="204.5" width="124" height="53" stroke="#000000" stroke-linejoin="round" stroke-miterlimit="10" fill="#0000FF" fill-opacity="0.2"/><text font-family="Arial,Arial_MSFontService,sans-serif" font-weight="400" font-size="13" transform="translate(627.557 236)">Localization</text><path d="M1.128e-06-0.333333 24.3577-0.333251 24.3577 0.333416-1.128e-06 0.333333ZM23.0244-3.99992 31.0244 0.000104987 23.0243 4.00008Z" transform="matrix(-1 0 0 1 756.524 231.5)"/><path d="M260.5 163.167 431.471 163.167 431.471 238.446 431.138 238.112 595.109 238.112 595.109 238.779 430.805 238.779 430.805 163.5 431.138 163.833 260.5 163.833ZM593.776 234.446 601.776 238.446 593.776 242.446Z"/><path d="M556.5 94.1667 579.398 94.1667 579.398 223.298 579.065 222.965 594.963 222.965 594.963 223.632 578.731 223.632 578.731 94.5001 579.065 94.8334 556.5 94.8334ZM593.629 219.298 601.629 223.298 593.629 227.298Z"/><path d="M914.5 265.334C914.5 260.455 918.455 256.5 923.334 256.5L1029.67 256.5C1034.55 256.5 1038.5 260.455 1038.5 265.334L1038.5 300.667C1038.5 305.545 1034.55 309.5 1029.67 309.5L923.334 309.5C918.455 309.5 914.5 305.545 914.5 300.667Z" stroke="#D9D9D9" stroke-linejoin="round" stroke-miterlimit="10" fill="#F2F2F2" fill-rule="evenodd"/><text font-family="Arial,Arial_MSFontService,sans-serif" font-weight="400" font-size="13" transform="translate(942.429 288)">Global Map</text><path d="M914.5 277.334C914.5 272.455 918.455 268.5 923.334 268.5L1029.67 268.5C1034.55 268.5 1038.5 272.455 1038.5 277.334L1038.5 312.667C1038.5 317.545 1034.55 321.5 1029.67 321.5L923.334 321.5C918.455 321.5 914.5 317.545 914.5 312.667Z" stroke="#A6A6A6" stroke-linejoin="round" stroke-miterlimit="10" fill="#F2F2F2" fill-rule="evenodd"/><text font-family="Arial,Arial_MSFontService,sans-serif" font-weight="400" font-size="13" transform="translate(942.429 300)">Global Map</text><path d="M914.5 289.334C914.5 284.455 918.455 280.5 923.334 280.5L1029.67 280.5C1034.55 280.5 1038.5 284.455 1038.5 289.334L1038.5 324.667C1038.5 329.545 1034.55 333.5 1029.67 333.5L923.334 333.5C918.455 333.5 914.5 329.545 914.5 324.667Z" stroke="#000000" stroke-linejoin="round" stroke-miterlimit="10" fill="#F2F2F2" fill-rule="evenodd"/><text font-family="Arial,Arial_MSFontService,sans-serif" font-weight="400" font-size="13" transform="translate(931.429 312)">Global Map # 1</text><rect x="756.5" y="280.5" width="124" height="53" stroke="#000000" stroke-linejoin="round" stroke-miterlimit="10" fill="none"/><text font-family="Arial,Arial_MSFontService,sans-serif" font-weight="400" font-size="13" transform="translate(778.929 312)">Map Merging</text><path d="M1.01234e-06-0.333333 27.9024-0.333249 27.9024 0.333418-1.01234e-06 0.333333ZM26.569-3.99992 34.569 0.000104987 26.569 4.00008Z" transform="matrix(-1 0 0 1 915.069 307.5)"/><path d="M0.333333-1.54109e-06 0.333407 16.0417-0.333259 16.0417-0.333333 1.54109e-06ZM4.00007 14.7083 0.000104987 22.7083-3.99993 14.7084Z" transform="matrix(1 0 0 -1 818.5 280.208)"/><text font-family="Arial,Arial_MSFontService,sans-serif" font-weight="400" font-size="13" transform="translate(609.726 70)">(1)</text><text font-family="Arial,Arial_MSFontService,sans-serif" font-weight="400" font-size="13" transform="translate(607.294 220)">(2)</text><text font-family="Bookman Old Style,Bookman Old Style_MSFontService,sans-serif" font-style="italic" font-weight="600" font-size="37" transform="translate(138.947 288)">RoadLib</text><text font-family="Times New Roman,Times New Roman_MSFontService,sans-serif" font-style="italic" font-weight="400" font-size="19" transform="translate(138.947 315)">Visual mapping and localization system</text><text font-family="Times New Roman,Times New Roman_MSFontService,sans-serif" font-style="italic" font-weight="400" font-size="19" transform="translate(138.947 337)">based on road markings</text></g></svg>